<svg xmlns="http://www.w3.org/2000/svg" viewBox="0 0 64 64" fill="none">
  <!-- Email envelope -->
  <path d="M8 18L32 36L56 18M8 18V46C8 47.1046 8.89543 48 10 48H54C55.1046 48 56 47.1046 56 46V18M8 18H56" 
        stroke="hsl(24, 9.8%, 10%)" 
        stroke-width="3" 
        stroke-linecap="round" 
        stroke-linejoin="round"/>
  
  <!-- Sparkles (AI generation symbol) -->
  <circle cx="20" cy="12" r="2" fill="hsl(24, 9.8%, 10%)" opacity="0.8"/>
  <circle cx="44" cy="12" r="2" fill="hsl(24, 9.8%, 10%)" opacity="0.8"/>
  <circle cx="12" cy="24" r="1.5" fill="hsl(24, 9.8%, 10%)" opacity="0.7"/>
  <circle cx="52" cy="24" r="1.5" fill="hsl(24, 9.8%, 10%)" opacity="0.7"/>
  <circle cx="18" cy="42" r="1.5" fill="hsl(24, 9.8%, 10%)" opacity="0.7"/>
  <circle cx="46" cy="42" r="1.5" fill="hsl(24, 9.8%, 10%)" opacity="0.7"/>
  
  <!-- Small sparkle accents -->
  <path d="M16 8L17 10L19 9L18 11L20 12L18 13L19 15L17 14L16 16L15 14L13 15L14 13L12 12L14 11L13 9L15 10L16 8Z" 
        fill="hsl(24, 9.8%, 10%)" 
        opacity="0.6"/>
  <path d="M48 8L49 10L51 9L50 11L52 12L50 13L51 15L49 14L48 16L47 14L45 15L46 13L44 12L46 11L45 9L47 10L48 8Z" 
        fill="hsl(24, 9.8%, 10%)" 
        opacity="0.6"/>
</svg>

